<?xml version="1.0" encoding="UTF-8" standalone="no"?>
<!DOCTYPE svg PUBLIC "-//W3C//DTD SVG 1.1//EN" "http://www.w3.org/Graphics/SVG/1.1/DTD/svg11.dtd">
<svg width="100%" height="100%" viewBox="0 0 256 256" version="1.1" xmlns="http://www.w3.org/2000/svg" xmlns:xlink="http://www.w3.org/1999/xlink" xml:space="preserve" xmlns:serif="http://www.serif.com/" style="fill-rule:evenodd;clip-rule:evenodd;stroke-linejoin:round;stroke-miterlimit:2;">
    <g id="layer1" transform="matrix(1,0,0,1,64.6541,68.9084)">
        <g id="g3548">
            <g transform="matrix(1,0,0,1,-64.6541,-68.9084)">
                <path d="M128,0C198.645,0 256,57.355 256,128C256,198.645 198.645,256 128,256C57.355,256 -0,198.645 -0,128C-0,57.355 57.355,0 128,0ZM175.075,48.096C163.35,48.096 146.185,49.428 135.018,57.589C122.965,66.396 108.153,84.48 102.76,100.942C88.683,97.533 82.073,88.936 76.688,79.666C71.302,70.396 70.814,56.444 70.448,45.322C64.46,48.256 45.493,58.342 37.516,64.625C31.348,69.482 23.808,78.574 22.583,83.019C19.715,93.428 20.582,95.791 22.847,101.264C25.113,106.737 32.425,112.927 36.178,115.857C41.938,120.259 48.594,123.237 55.335,125.665C70.32,130.917 77.575,132.265 93.314,133.585C91.302,142.984 92.284,149.069 92.385,158.703C92.597,173.878 97.327,187.917 105.687,200.66C112.099,210.538 128.096,221.701 139.678,225.442C150.991,229.097 164.446,227.888 175.182,223.108C185.917,218.327 198.042,205.451 204.091,196.759C209.166,189.467 211.859,178.649 211.475,170.956C211.099,163.413 207.757,155.01 201.789,150.6C195.755,146.141 180.607,144.027 175.267,144.201C173.548,154.407 169.634,164.274 165.705,169.677C162.602,173.945 155.375,175.987 151.696,176.618C148.859,177.105 145.317,175.86 143.631,173.465C141.633,170.627 139.29,164.384 139.704,159.585C140.268,153.036 141.921,145.41 147.017,134.173C147.283,133.295 148.382,133.584 149.045,133.415C162.077,132.22 173.533,130.368 183.717,124.808C193.901,119.248 204.916,108.291 210.15,100.055C214.617,93.027 215.92,82.474 215.124,75.397C214.362,68.63 210.894,61.354 205.371,57.589C198.696,53.039 185.633,48.096 175.075,48.096Z" style="fill:rgb(204,204,204);"/>
            </g>
            <g id="path2" transform="matrix(1,0,0,1,-64.6541,-68.9084)">
                <path d="M168.999,214.844C184.371,210.151 197.935,195.977 202.071,180.284C205.857,165.919 200.597,156.507 187.756,154.671L184.35,154.184L182.879,158.905C179.72,169.042 169.996,180.418 160.919,184.595C153.032,188.224 143.886,186.824 138.085,181.1C129.216,172.349 129.103,154.033 137.782,131.793L140.347,125.221L145.572,124.637C166.813,122.259 184.501,114.962 195.829,103.904C210.717,89.37 209.54,71.305 193.171,63.108C181.264,57.145 163.841,57.289 150.061,63.463C133.991,70.664 118.718,88.533 111.258,108.861C110.42,111.146 109.465,113.324 109.136,113.702C107.339,115.766 87.085,106.615 79.234,100.191C74.107,95.996 68.872,89.406 65.616,83.05C63.6,79.112 61.243,70.6 61.224,67.19C61.199,62.623 60.369,62.645 52.166,67.426C43.482,72.487 35.457,79.76 33.14,84.668C30.874,89.469 31.608,95.613 34.99,100.158C42.699,110.516 63.439,118.835 91.931,122.996C96.557,123.672 101.508,124.227 102.934,124.229C104.36,124.235 105.72,124.425 105.956,124.658C106.192,124.892 105.815,127.79 105.119,131.099C104.272,135.121 103.851,141.935 103.848,151.658C103.844,164.757 104.064,167.014 106.064,174.403C109.477,187.011 113.401,194.095 121.346,201.988C125.892,206.505 129.737,209.472 133.138,211.088C144.302,216.392 158.916,217.923 168.999,214.844ZM174.717,102.156C174.744,102.247 174.768,102.34 174.788,102.433L174.795,102.463C174.803,102.504 174.811,102.545 174.818,102.586C174.823,102.612 174.827,102.638 174.832,102.665C175.259,105.382 172.978,108.78 168.556,111.34C162.691,114.737 147.057,118.076 146.208,116.206C146.184,116.154 146.172,116.097 146.172,116.036C146.172,115.641 146.991,114.239 147.991,112.92C156.696,101.448 167.262,95.867 172.895,99.767C173.849,100.427 174.449,101.245 174.717,102.156Z" style="fill:rgb(204,204,204);fill-rule:nonzero;stroke:black;stroke-opacity:0;stroke-width:8.43px;"/>
            </g>
        </g>
    </g>
</svg>
