<?xml version="1.0" encoding="UTF-8" standalone="no"?>
<!DOCTYPE svg PUBLIC "-//W3C//DTD SVG 1.1//EN" "http://www.w3.org/Graphics/SVG/1.1/DTD/svg11.dtd">
<svg width="100%" height="100%" viewBox="0 0 415 415" version="1.1" xmlns="http://www.w3.org/2000/svg" xmlns:xlink="http://www.w3.org/1999/xlink" xml:space="preserve" xmlns:serif="http://www.serif.com/" style="fill-rule:evenodd;clip-rule:evenodd;stroke-linejoin:round;stroke-miterlimit:2;">
    <path d="M207.5,0C322.1,0 415,92.9 415,207.5C415,322.1 322.1,415 207.5,415C92.9,415 0,322.1 0,207.5C0,92.9 92.9,0 207.5,0ZM230.7,162.7C231.7,163.7 232.5,164.6 233.4,165.5C253.9,186 274.5,206.5 295,227.1C298.3,230.4 298.3,231.1 294.9,234.4C269.3,260 243.7,285.6 218,311.2C211.1,318.1 204.2,318.1 197.3,311.2C162.8,276.6 128,242.4 93.8,207.5C75.3,188.6 70.5,165.5 79.5,140.7C88.3,116.5 106.4,102.5 132,99.2C152.9,96.5 170.9,103.3 185.9,118.2C190.3,122.6 194.7,127.1 199.2,131.4C201.5,133.6 201.3,135.4 199.1,137.6C193.4,143.2 187.8,148.7 182.3,154.4C180,156.7 178.3,156.5 176.1,154.3C171.5,149.5 166.8,145 162.2,140.3C149.7,127.8 129.6,127.9 117.1,140.4C104.8,152.7 104.9,172.7 117.3,185.2C124.6,192.6 131.9,200 139.6,207.6C140.6,206.7 141.5,205.9 142.3,205C171.1,176.4 199.9,147.6 228.7,118.8C238.6,108.9 250.2,102.1 264,99.6C306.5,92 342.4,126.2 339.8,166.5C338.7,182.7 332.5,196.5 321.3,208C316.6,212.8 311.8,217.5 307.1,222.2C305,224.3 303.2,224.4 301.1,222.3C295.5,216.6 289.8,210.9 284,205.3C281.9,203.2 281.8,201.5 284,199.4C288.8,194.8 293.4,190.1 298,185.5C310.6,172.7 310.7,152.9 298.3,140.3C286,127.9 265.8,127.8 253.1,140.3C245.6,147.7 238.3,155.1 230.7,162.7Z" style="fill:rgb(204,204,204);"/>
    <g id="Layer_1">
        <path d="M176,230.4C176,248.2 190.1,262.6 207.6,262.7C225,262.8 239.7,248.2 239.7,230.8C239.8,213.3 225.3,199.1 207.6,199.1C190,199 176,213 176,230.4ZM213.5,211.5C211.7,215.1 212.4,218.5 215.3,221.2C218.5,224 222,223.9 225.4,221.5C230.6,228.7 227.8,240.1 222,245.6C214.8,252.4 202.8,253.1 195.2,247.1C187.1,240.6 184.9,229.5 190,220.7C194.8,212.1 205.1,208.1 213.5,211.5Z" style="fill:rgb(204,204,204);"/>
    </g>
</svg>
