<?xml version="1.0" encoding="UTF-8" standalone="no"?>
<!DOCTYPE svg PUBLIC "-//W3C//DTD SVG 1.1//EN" "http://www.w3.org/Graphics/SVG/1.1/DTD/svg11.dtd">
<svg width="100%" height="100%" viewBox="0 0 128 128" version="1.1" xmlns="http://www.w3.org/2000/svg" xmlns:xlink="http://www.w3.org/1999/xlink" xml:space="preserve" xmlns:serif="http://www.serif.com/" style="fill-rule:evenodd;clip-rule:evenodd;stroke-linejoin:round;stroke-miterlimit:2;">
    <g transform="matrix(0.0128938,0,0,0.0128938,32.8893,1.7926)">
        <g id="g851">
            <g id="g8237">
                <g transform="matrix(77.5567,0,0,77.5567,-2550.78,-139.028)">
                    <g id="_x23_008ccfff">
                        <path d="M64,-0C99.323,-0 128,28.677 128,64C128,99.323 99.323,128 64,128C28.677,128 0,99.323 0,64C0,28.677 28.677,-0 64,-0ZM46.9,98.297L46.858,98.434C52.356,98.343 57.901,97.105 62.803,94.494C69.356,91.103 74.763,85.513 77.878,78.777C78.153,78.365 78.245,77.632 78.887,77.677C85.897,77.082 92.953,74.195 97.673,68.88C101.155,65.214 103.309,60.403 104.5,55.5C98.269,56.737 91.671,57.196 85.439,55.5C92.358,54.08 99.185,51.514 104.684,47.023C110.136,42.716 113.939,36.485 115.497,29.703C108.899,29.612 102.255,29.612 95.611,29.612C90.113,29.657 84.477,29.841 79.161,31.353C75.267,32.498 71.738,34.835 69.218,37.997C63.078,45.924 60.375,55.821 57.122,65.168C56.807,66.426 56.405,67.684 55.914,68.899L55.93,68.834C53.685,73.05 48.37,75.203 43.788,73.691C38.106,72.179 34.899,65.123 37.419,59.853C38.748,56.462 42.138,54.126 45.667,53.713C48.92,53.301 52.219,54.63 54.464,56.967C56.389,59.166 57.351,62.144 57.122,65.031C60.421,55.684 63.078,45.832 69.218,37.859C63.033,32.636 54.968,29.612 46.812,29.566C45.667,29.566 44.475,29.612 43.33,29.749C30.179,31.078 18.174,40.517 14.233,53.163C11.209,62.19 12.172,72.5 16.937,80.793C21.107,88.4 28.484,94.127 36.731,96.739C40.029,97.792 43.464,98.113 46.9,98.297Z" style="fill:rgb(204,204,204);"/>
                    </g>
                </g>
                <g id="_x23_008ccfff1" serif:id="_x23_008ccfff" transform="matrix(35.537,0,0,35.537,-2324.65,-827.565)">
                    <path id="path22" d="M202.3,84C190.3,84.1 178,84.5 166.4,87.8C157.9,90.3 150.2,95.4 144.7,102.3C131.3,119.6 125.4,141.2 118.3,161.6C117.6,164.4 116.7,167.2 115.6,169.9C115,172.2 114.6,174.5 113.9,176.8C107.9,195.9 101.7,215 95.9,234.2C107.9,234 120,231.3 130.7,225.6C145,218.2 156.8,206 163.6,191.3C164.2,190.4 164.4,188.8 165.8,188.9C181.1,187.6 196.5,181.3 206.8,169.7C214.4,161.7 219.1,151.2 221.7,140.5C208.1,143.2 193.7,144.2 180.1,140.5C195.2,137.4 210.1,131.8 222.1,122C234,112.6 242.3,99 245.7,84.2C231.3,84 216.8,84 202.3,84Z" style="fill:rgb(153,153,153);fill-opacity:0.29;fill-rule:nonzero;"/>
                </g>
            </g>
        </g>
    </g>
</svg>
