<?xml version="1.0" encoding="UTF-8" standalone="no"?>
<!DOCTYPE svg PUBLIC "-//W3C//DTD SVG 1.1//EN" "http://www.w3.org/Graphics/SVG/1.1/DTD/svg11.dtd">
<svg width="100%" height="100%" viewBox="0 0 28 28" version="1.1" xmlns="http://www.w3.org/2000/svg" xmlns:xlink="http://www.w3.org/1999/xlink" xml:space="preserve" xmlns:serif="http://www.serif.com/" style="fill-rule:evenodd;clip-rule:evenodd;stroke-linejoin:round;stroke-miterlimit:2;">
    <g id="icons" transform="matrix(1,0,0,1,-2,-2)">
        <g id="telegram">
            <path d="M21,12.1L13.2,19C13.1,19.1 13.1,19.2 13.1,19.3L12.8,22C12.8,22.1 12.7,22.1 12.6,22L11.4,18C11.3,17.8 11.4,17.6 11.6,17.5L20.7,11.8C21,11.7 21.2,12 21,12.1Z" style="fill:#cccccc;fill-rule:nonzero;"/>
            <path d="M16,2.2C12.2,2.2 8.7,3.7 6.2,6.2C3.7,8.7 2.1,12.2 2.1,16C2.1,19.8 3.6,23.3 6.2,25.8C8.7,28.3 12.2,29.8 16,29.8C19.8,29.8 23.3,28.3 25.8,25.8C28.3,23.3 29.9,19.8 29.9,16C29.8,8.4 23.6,2.2 16,2.2ZM24.2,10.1L21.4,23.7C21.3,24.3 20.5,24.6 20,24.2L15.7,21L13.5,23.2C13.1,23.6 12.5,23.4 12.3,22.9L10.7,17.9L6.5,16.6C5.9,16.4 5.9,15.7 6.5,15.5L23.2,9C23.7,8.9 24.4,9.4 24.2,10.1Z" style="fill:#cccccc;fill-rule:nonzero;"/>
        </g>
    </g>
</svg>
