<?xml version="1.0" encoding="UTF-8" standalone="no"?>
<!DOCTYPE svg PUBLIC "-//W3C//DTD SVG 1.1//EN" "http://www.w3.org/Graphics/SVG/1.1/DTD/svg11.dtd">
<svg width="100%" height="100%" viewBox="0 0 150 150" version="1.1" xmlns="http://www.w3.org/2000/svg" xmlns:xlink="http://www.w3.org/1999/xlink" xml:space="preserve" xmlns:serif="http://www.serif.com/" style="fill-rule:evenodd;clip-rule:evenodd;stroke-linejoin:round;stroke-miterlimit:2;">
    <path d="M67,0.55C40.648,3.3 17.102,20.649 6.398,45.2C-0.5,61.05 -1.648,79.3 3.25,96.101C9.3,117.05 24.95,134.749 45.2,143.601C61.05,150.499 79.3,151.647 96.102,146.749C121.25,139.499 141.051,118.851 147.551,93.199C157.699,53 132.8,11.897 92.5,2.3C83.648,0.2 75.852,-0.351 67,0.55ZM68,47C74.398,55.5 79.8,62.5 80,62.5C80.2,62.5 86.852,55.5 94.7,47L109.05,31.5L117.2,31.5L115.45,33.352C114.45,34.398 107.95,41.449 101,49C94.05,56.55 87.25,63.898 85.898,65.25L83.5,67.8L102.25,92.75C112.55,106.5 121,117.898 121,118.102C121,118.352 114.852,118.5 107.398,118.5L93.75,118.45L81.05,101.45C72.3,89.7 68.2,84.647 67.8,84.95C67.5,85.2 60.398,92.852 52,101.95L36.75,118.5L32.898,118.5C30.75,118.5 29,118.398 29,118.25C29,118.102 36.95,109.398 46.648,98.95C56.301,88.5 64.301,79.75 64.398,79.602C64.45,79.398 56.5,68.55 46.75,55.5C37,42.5 29,31.75 29,31.648C29,31.551 35.148,31.5 42.7,31.5L56.398,31.5L68,47Z" style="fill:#cccccc;fill-rule:nonzero;"/>
    <path d="M41.352,38.2C41.551,38.55 54.148,55.45 69.25,75.648L96.75,112.449L102.898,112.5C106.699,112.5 109,112.3 108.898,112C108.852,111.75 96.301,94.852 81.102,74.5L53.398,37.5L47.2,37.5C42.052,37.5 41.001,37.602 41.353,38.2L41.352,38.2Z" style="fill:#cccccc;fill-rule:nonzero;"/>
</svg>
